<svg width="130" height="148" viewBox="0 0 130 148" fill="none" xmlns="http://www.w3.org/2000/svg">
<path d="M5.41666 18.5C5.41666 8.29609 15.1328 0 27.0833 0H102.917C114.867 0 124.583 8.29609 124.583 18.5V129.5C124.583 139.704 114.867 148 102.917 148H27.0833C15.1328 148 5.41666 139.704 5.41666 129.5V18.5ZM48.75 129.5C48.75 132.044 51.1875 134.125 54.1667 134.125H75.8333C78.8125 134.125 81.25 132.044 81.25 129.5C81.25 126.956 78.8125 124.875 75.8333 124.875H54.1667C51.1875 124.875 48.75 126.956 48.75 129.5ZM102.917 18.5H27.0833V111H102.917V18.5Z" fill="white"/>
</svg>
