<svg width="247" height="212" viewBox="0 0 247 212" fill="none" xmlns="http://www.w3.org/2000/svg">
<path d="M55.575 42.4C47.3864 42.4 39.5333 45.192 33.7431 50.1617C27.9529 55.1314 24.7 61.8718 24.7 68.9V143.1C24.7 150.128 27.9529 156.869 33.7431 161.838C39.5333 166.808 47.3864 169.6 55.575 169.6H191.425C199.614 169.6 207.467 166.808 213.257 161.838C219.047 156.869 222.3 150.128 222.3 143.1V68.9C222.3 61.8718 219.047 55.1314 213.257 50.1617C207.467 45.192 199.614 42.4 191.425 42.4H55.575ZM37.05 68.9C37.05 64.6831 39.0017 60.6389 42.4758 57.657C45.95 54.6752 50.6619 53 55.575 53H191.425C196.338 53 201.05 54.6752 204.524 57.657C207.998 60.6389 209.95 64.6831 209.95 68.9V143.1C209.95 147.317 207.998 151.361 204.524 154.343C201.05 157.325 196.338 159 191.425 159H55.575C50.6619 159 45.95 157.325 42.4758 154.343C39.0017 151.361 37.05 147.317 37.05 143.1V68.9ZM55.575 63.6C53.9373 63.6 52.3667 64.1584 51.2086 65.1524C50.0506 66.1463 49.4 67.4944 49.4 68.9C49.4 70.3057 50.0506 71.6537 51.2086 72.6477C52.3667 73.6416 53.9373 74.2 55.575 74.2H117.325C118.963 74.2 120.533 73.6416 121.691 72.6477C122.849 71.6537 123.5 70.3057 123.5 68.9C123.5 67.4944 122.849 66.1463 121.691 65.1524C120.533 64.1584 118.963 63.6 117.325 63.6H55.575ZM55.575 84.8C53.9373 84.8 52.3667 85.3584 51.2086 86.3524C50.0506 87.3463 49.4 88.6944 49.4 90.1C49.4 91.5057 50.0506 92.8538 51.2086 93.8477C52.3667 94.8416 53.9373 95.4 55.575 95.4H154.375C156.013 95.4 157.583 94.8416 158.741 93.8477C159.899 92.8538 160.55 91.5057 160.55 90.1C160.55 88.6944 159.899 87.3463 158.741 86.3524C157.583 85.3584 156.013 84.8 154.375 84.8H55.575ZM61.75 116.6C58.4746 116.6 55.3333 117.717 53.0172 119.705C50.7012 121.693 49.4 124.389 49.4 127.2V137.8C49.4 140.611 50.7012 143.307 53.0172 145.295C55.3333 147.283 58.4746 148.4 61.75 148.4H111.15C114.425 148.4 117.567 147.283 119.883 145.295C122.199 143.307 123.5 140.611 123.5 137.8V127.2C123.5 124.389 122.199 121.693 119.883 119.705C117.567 117.717 114.425 116.6 111.15 116.6H61.75Z" fill="white"/>
</svg>
