<svg width="158" height="155" viewBox="0 0 158 155" fill="none" xmlns="http://www.w3.org/2000/svg">
<g clip-path="url(#clip0_201_159)">
<path d="M79 0C35.3783 0 0 34.7065 0 77.5C0 120.293 35.3783 155 79 155C122.622 155 158 120.293 158 77.5C158 34.7065 122.622 0 79 0ZM85.3543 141.185C85.0109 141.185 84.6674 141.185 84.1522 141.353V104.793C93.0826 104.625 101.154 104.457 108.539 103.951C102.013 123.663 89.8196 136.804 85.3543 141.185ZM72.6456 141.185C68.0087 136.636 55.987 123.495 49.4609 103.951C56.6739 104.457 64.9174 104.793 73.8478 104.793V141.353C73.5043 141.353 73.1609 141.185 72.6456 141.185ZM13.7391 77.5C13.7391 73.288 14.2543 69.0761 14.9413 65.0326C18.7196 64.3587 25.9326 63.3478 36.0652 62.337C35.2065 67.2228 34.6913 72.2772 34.6913 77.6685C34.6913 83.0598 35.2065 88.1141 35.8935 92.8315C25.9326 91.8207 18.5478 90.8098 14.7696 90.1359C14.2543 85.9239 13.7391 81.712 13.7391 77.5ZM45.1674 77.5C45.1674 71.7717 45.8543 66.3804 46.8848 61.3261C54.7848 60.8207 63.7152 60.3152 73.8478 60.3152V94.6848C63.887 94.5163 54.7848 94.1793 46.713 93.5054C45.8543 88.6196 45.1674 83.2283 45.1674 77.5ZM85.1826 13.8152C89.8196 18.3641 101.67 31.8424 108.367 51.0489C101.154 50.5435 93.0826 50.2065 84.1522 50.2065V13.6467C84.4956 13.6467 84.8391 13.8152 85.1826 13.8152ZM73.8478 13.6467V50.2065C64.9174 50.375 56.8456 50.5435 49.6326 51.0489C56.1587 31.8424 68.1804 18.3641 72.6456 13.8152C73.1609 13.8152 73.5043 13.6467 73.8478 13.6467ZM84.1522 94.6848V60.3152C94.113 60.4837 103.215 60.8207 111.115 61.3261C112.146 66.3804 112.833 71.7717 112.833 77.5C112.833 83.2283 112.317 88.6196 111.287 93.6739C103.387 94.1793 94.2848 94.5163 84.1522 94.6848ZM121.763 62.337C131.896 63.3478 139.109 64.3587 142.887 65.0326C143.746 69.0761 144.261 73.288 144.261 77.5C144.261 81.712 143.746 85.9239 143.059 89.9674C139.28 90.6413 132.067 91.6522 121.935 92.663C122.793 87.7772 123.137 82.7228 123.137 77.3315C123.137 72.2772 122.622 67.0543 121.763 62.337ZM139.796 54.25C134.987 53.5761 128.117 52.7337 119.359 51.8913C115.237 37.4022 108.024 25.7772 102.013 17.5217C119.359 23.9239 133.098 37.4022 139.796 54.25ZM55.987 17.5217C49.8043 25.6087 42.763 37.2337 38.6413 51.7228C30.0543 52.3967 23.1848 53.4076 18.2043 54.0815C24.9022 37.4022 38.813 23.9239 55.987 17.5217ZM18.2043 100.75C23.013 101.424 29.8826 102.266 38.4696 103.109C42.5913 117.598 49.4609 129.223 55.6435 137.31C38.4696 130.739 24.9022 117.429 18.2043 100.75ZM102.357 137.31C108.539 129.223 115.409 117.766 119.53 103.277C128.117 102.603 134.987 101.592 139.796 100.918C133.098 117.429 119.53 130.739 102.357 137.31Z" fill="white"/>
</g>
<defs>
<clipPath id="clip0_201_159">
<rect width="158" height="155" fill="white"/>
</clipPath>
</defs>
</svg>
